<?xml version="1.0" encoding="UTF-8" standalone="no"?>
<!-- Created with Inkscape (http://www.inkscape.org/) -->

<svg
   xmlns:dc="http://purl.org/dc/elements/1.1/"
   xmlns:cc="http://creativecommons.org/ns#"
   xmlns:rdf="http://www.w3.org/1999/02/22-rdf-syntax-ns#"
   xmlns:svg="http://www.w3.org/2000/svg"
   xmlns="http://www.w3.org/2000/svg"
   xmlns:sodipodi="http://sodipodi.sourceforge.net/DTD/sodipodi-0.dtd"
   xmlns:inkscape="http://www.inkscape.org/namespaces/inkscape"
   version="1.1"
   id="svg114132"
   xml:space="preserve"
   width="800"
   height="800"
   viewBox="0 0 800 800"
   sodipodi:docname="low-poly-woman-outline-publicdomainvectors.org.svg"
   inkscape:version="0.92.4 (5da689c313, 2019-01-14)"><metadata
     id="metadata114138"><rdf:RDF><cc:Work
         rdf:about=""><dc:format>image/svg+xml</dc:format><dc:type
           rdf:resource="http://purl.org/dc/dcmitype/StillImage" /><dc:title></dc:title></cc:Work></rdf:RDF></metadata><defs
     id="defs114136"><clipPath
       clipPathUnits="userSpaceOnUse"
       id="clipPath114148"><path
         d="M 0,600 H 600 V 0 H 0 Z"
         id="path114146"
         inkscape:connector-curvature="0" /></clipPath></defs><sodipodi:namedview
     pagecolor="#ffffff"
     bordercolor="#666666"
     borderopacity="1"
     objecttolerance="10"
     gridtolerance="10"
     guidetolerance="10"
     inkscape:pageopacity="0"
     inkscape:pageshadow="2"
     inkscape:window-width="797"
     inkscape:window-height="480"
     id="namedview114134"
     showgrid="false"
     inkscape:zoom="0.295"
     inkscape:cx="400"
     inkscape:cy="400"
     inkscape:window-x="0"
     inkscape:window-y="0"
     inkscape:window-maximized="0"
     inkscape:current-layer="g114140" /><g
     id="g114140"
     inkscape:groupmode="layer"
     inkscape:label="low-poly-woman-outline-publicdomainvectors.org"
     transform="matrix(1.3333333,0,0,-1.3333333,0,800)"><g
       id="g114142"><g
         id="g114144"
         clip-path="url(#clipPath114148)"><path
           d="m 313.086,588.181 c -1.887,-0.258 -3.727,-0.541 -5.479,-0.791 -5.14,-2.931 -10.078,-7.414 -13.764,-12.728 l 22.198,-25.435 z"
           style="fill:#003aba;fill-opacity:1;fill-rule:nonzero;stroke:none"
           id="path114150"
           inkscape:connector-curvature="0" /><path
           d="m 293.843,574.662 c -5.448,-7.855 -8.162,-17.528 -4.752,-26.698 l 26.95,1.263 z"
           style="fill:#0337c3;fill-opacity:1;fill-rule:nonzero;stroke:none"
           id="path114152"
           inkscape:connector-curvature="0" /><path
           d="m 339.763,530.541 c 0.701,0.379 1.479,0.63 2.351,0.719 9.749,14.136 5.767,31.432 0.469,46.513 l -26.542,-28.546 z"
           style="fill:#0057c4;fill-opacity:1;fill-rule:nonzero;stroke:none"
           id="path114154"
           inkscape:connector-curvature="0" /><path
           d="m 342.583,577.773 c -0.374,1.066 -0.755,2.121 -1.138,3.162 -6.352,9.315 -18.051,8.652 -28.359,7.246 l 2.955,-38.954 z"
           style="fill:#0049b7;fill-opacity:1;fill-rule:nonzero;stroke:none"
           id="path114156"
           inkscape:connector-curvature="0" /><path
           d="m 330.996,488.734 9.876,11.463 c -5.693,2.338 -9.638,6.581 -8.509,14.074 1.507,5.002 2.611,13.675 7.4,16.27 l -23.722,18.686 z"
           style="fill:#0066d2;fill-opacity:1;fill-rule:nonzero;stroke:none"
           id="path114158"
           inkscape:connector-curvature="0" /><path
           d="m 289.091,547.964 c 0.291,-0.782 0.626,-1.56 1.008,-2.333 -3.352,-10.088 8.661,-10.663 7.48,-16.86 0.109,-0.417 0.231,-0.832 0.362,-1.247 l 18.1,21.703 z"
           style="fill:#014dd1;fill-opacity:1;fill-rule:nonzero;stroke:none"
           id="path114160"
           inkscape:connector-curvature="0" /><path
           d="m 316.041,549.227 -18.1,-21.703 c 2.163,-6.858 6.989,-13.558 4.434,-21.099 -3.593,-11.664 -14.062,-12.175 -23.743,-12.832 -3.575,0.381 -6.179,-0.563 -8.056,-2.297 l 60.42,-2.562 z"
           style="fill:#0065d7;fill-opacity:1;fill-rule:nonzero;stroke:none"
           id="path114162"
           inkscape:connector-curvature="0" /><path
           d="m 368.549,493.983 c -1.885,1.934 -4.32,3.261 -7.616,3.59 -6.009,-0.197 -14.02,0.142 -20.061,2.624 l -9.876,-11.463 z"
           style="fill:#0077d2;fill-opacity:1;fill-rule:nonzero;stroke:none"
           id="path114164"
           inkscape:connector-curvature="0" /><path
           d="m 330.996,488.734 -60.42,2.562 c -0.481,-0.444 -0.915,-0.94 -1.305,-1.479 l 41.859,-46.173 z"
           style="fill:#007fdd;fill-opacity:1;fill-rule:nonzero;stroke:none"
           id="path114166"
           inkscape:connector-curvature="0" /><path
           d="m 375.134,416.328 36.324,-7.971 c -0.019,0.052 -0.035,0.103 -0.054,0.156 -16.969,17.731 -26.675,40.887 -33.653,64.062 -2.351,5.015 -3.519,11.918 -6.266,17.213 l -10.432,-48.107 c 3.928,-8.815 8.804,-17.198 14.081,-25.353"
           style="fill:#0087d6;fill-opacity:1;fill-rule:nonzero;stroke:none"
           id="path114168"
           inkscape:connector-curvature="0" /><path
           d="m 352.98,429.721 c 0.873,4.706 1.825,9.387 2.598,14.008 1.527,11.84 3.2,7.731 5.248,-1.545 0.074,-0.169 0.152,-0.336 0.227,-0.503 l 10.432,48.107 c -0.815,1.57 -1.77,2.999 -2.936,4.195 l -37.553,-5.249 z"
           style="fill:#0084d8;fill-opacity:1;fill-rule:nonzero;stroke:none"
           id="path114170"
           inkscape:connector-curvature="0" /><path
           d="m 311.13,443.644 -41.859,46.173 c -0.478,-0.662 -0.89,-1.388 -1.244,-2.162 l 3.369,-62.539 z"
           style="fill:#2e92e2;fill-opacity:1;fill-rule:nonzero;stroke:none"
           id="path114172"
           inkscape:connector-curvature="0" /><path
           d="m 268.027,487.655 c -1.868,-4.086 -2.114,-9.508 -1.846,-13.822 -0.779,-15.276 -2.401,-30.771 -5.849,-45.77 l 11.064,-2.947 z"
           style="fill:#79a5d1;fill-opacity:1;fill-rule:nonzero;stroke:none"
           id="path114174"
           inkscape:connector-curvature="0" /><path
           d="m 311.13,443.644 40.662,-20.832 c 0.356,2.307 0.764,4.611 1.188,6.909 l -21.984,59.013 z"
           style="fill:#008ae0;fill-opacity:1;fill-rule:nonzero;stroke:none"
           id="path114176"
           inkscape:connector-curvature="0" /><path
           d="m 388.989,396.051 23.693,8.639 c -0.411,1.224 -0.818,2.445 -1.224,3.667 l -36.324,7.971 c 4.447,-6.879 9.177,-13.597 13.855,-20.277"
           style="fill:#008ddc;fill-opacity:1;fill-rule:nonzero;stroke:none"
           id="path114178"
           inkscape:connector-curvature="0" /><path
           d="m 271.396,425.116 24.554,-43.082 15.18,61.61 z"
           style="fill:#53b3eb;fill-opacity:1;fill-rule:nonzero;stroke:none"
           id="path114180"
           inkscape:connector-curvature="0" /><path
           d="m 295.95,382.034 55.064,34.947 c 0.212,1.944 0.477,3.888 0.778,5.831 l -40.662,20.832 z"
           style="fill:#28a4e8;fill-opacity:1;fill-rule:nonzero;stroke:none"
           id="path114182"
           inkscape:connector-curvature="0" /><path
           d="m 260.332,428.063 c -0.81,-3.524 -1.722,-7.02 -2.747,-10.48 l 13.811,7.533 z"
           style="fill:#cebebe;fill-opacity:1;fill-rule:nonzero;stroke:none"
           id="path114184"
           inkscape:connector-curvature="0" /><path
           d="m 257.585,417.583 c -1.413,-4.769 -3.039,-9.47 -4.918,-14.074 -4.594,-6.99 -8.302,-14.478 -12.024,-21.96 l 20.63,-6.791 c 0.257,0.299 0.514,0.597 0.771,0.893 0.744,0.639 1.438,1.305 2.097,1.993 l 7.255,47.472 z"
           style="fill:#d4d4d8;fill-opacity:1;fill-rule:nonzero;stroke:none"
           id="path114186"
           inkscape:connector-curvature="0" /><path
           d="m 271.396,425.116 -7.255,-47.472 c 7.983,8.334 10.044,20.111 14.076,30.729 3.288,-10.559 0.118,-20.928 -2.453,-31.351 l 20.186,5.012 z"
           style="fill:#98cce8;fill-opacity:1;fill-rule:nonzero;stroke:none"
           id="path114188"
           inkscape:connector-curvature="0" /><path
           d="m 354.877,389.24 c -0.903,1.553 -1.826,3.097 -2.758,4.635 -1.966,7.61 -1.956,15.357 -1.105,23.106 L 295.95,382.034 Z"
           style="fill:#139fe7;fill-opacity:1;fill-rule:nonzero;stroke:none"
           id="path114190"
           inkscape:connector-curvature="0" /><path
           d="m 475.237,340.142 c 16.762,-0.74 -0.268,6.761 -7.909,5.785 -3.109,2.35 -6.481,3.846 -10.002,4.787 l 4.258,-8.292 c 4.341,-1.559 8.638,-3.39 13.653,-2.28"
           style="fill:#0047bb;fill-opacity:1;fill-rule:nonzero;stroke:none"
           id="path114192"
           inkscape:connector-curvature="0" /><path
           d="m 391.235,392.839 c 0.704,-1.542 1.446,-3.059 2.217,-4.556 l 27.731,-6.854 c -3.159,7.618 -5.878,15.445 -8.501,23.261 l -23.693,-8.639 c 0.751,-1.071 1.5,-2.142 2.246,-3.212"
           style="fill:#0081d5;fill-opacity:1;fill-rule:nonzero;stroke:none"
           id="path114194"
           inkscape:connector-curvature="0" /><path
           d="m 301.308,316.406 60.47,59.592 c -2.017,4.529 -4.387,8.922 -6.901,13.242 l -58.927,-7.206 z"
           style="fill:#73c3ef;fill-opacity:1;fill-rule:nonzero;stroke:none"
           id="path114196"
           inkscape:connector-curvature="0" /><path
           d="m 226.269,356.388 c -3.833,-4.127 -6.905,-10.642 -11.153,-14.862 l 1.491,-14.633 c 17.661,13.02 30.427,31.36 44.666,47.865 l -20.63,6.791 c -4.307,-8.654 -8.633,-17.301 -14.374,-25.161"
           style="fill:#e79f83;fill-opacity:1;fill-rule:nonzero;stroke:none"
           id="path114198"
           inkscape:connector-curvature="0" /><path
           d="m 203.402,337.726 c -9.683,1.642 -17.694,-3.791 -26.442,-6.33 l 10.459,-2.564 c 3.112,1.124 6.253,1.813 9.67,0.549 -0.745,-0.371 -1.655,-1.202 -2.591,-2.285 l 12.727,-3.12 c 2.625,0.283 5.291,0.591 7.648,1.667 0.584,0.411 1.162,0.828 1.734,1.25 l -1.491,14.633 c -3.055,-3.037 -6.72,-4.886 -11.714,-3.8"
           style="fill:#e84814;fill-opacity:1;fill-rule:nonzero;stroke:none"
           id="path114200"
           inkscape:connector-curvature="0" /><path
           d="m 372.627,302.628 c 0.435,4.829 0.568,9.663 0.447,14.491 l -1.006,-14.998 z"
           style="fill:#008be3;fill-opacity:1;fill-rule:nonzero;stroke:none"
           id="path114202"
           inkscape:connector-curvature="0" /><path
           d="m 372.068,302.121 1.006,14.998 c -0.324,12.892 -2.449,25.743 -5.428,38.329 -0.805,7.264 -2.972,14.049 -5.868,20.55 l -60.47,-59.592 z"
           style="fill:#59b9ed;fill-opacity:1;fill-rule:nonzero;stroke:none"
           id="path114204"
           inkscape:connector-curvature="0" /><path
           d="m 420.073,351.61 9.05,13.216 c -2.986,5.358 -5.586,10.922 -7.94,16.603 l -27.731,6.854 c 6.97,-13.532 16.587,-25.287 26.621,-36.673"
           style="fill:#0081da;fill-opacity:1;fill-rule:nonzero;stroke:none"
           id="path114206"
           inkscape:connector-curvature="0" /><path
           d="m 295.95,382.034 -20.186,-5.012 c -1.16,-4.701 -2.198,-9.415 -2.467,-14.161 -0.171,-0.956 -0.354,-1.908 -0.545,-2.86 l 28.556,-43.595 z"
           style="fill:#b4dcf4;fill-opacity:1;fill-rule:nonzero;stroke:none"
           id="path114208"
           inkscape:connector-curvature="0" /><path
           d="m 427.114,343.706 19.931,8.444 c -3.237,0.137 -6.508,0.065 -9.733,-0.02 -3.042,4.06 -5.745,8.309 -8.189,12.696 l -9.05,-13.216 c 2.334,-2.648 4.692,-5.277 7.041,-7.904"
           style="fill:#006ad4;fill-opacity:1;fill-rule:nonzero;stroke:none"
           id="path114210"
           inkscape:connector-curvature="0" /><path
           d="m 272.752,360.001 c -2.439,-12.152 -6.313,-24.119 -5.962,-36.73 0.305,-2.176 0.668,-4.335 1.08,-6.48 l 33.438,-0.385 z"
           style="fill:#ece8e4;fill-opacity:1;fill-rule:nonzero;stroke:none"
           id="path114212"
           inkscape:connector-curvature="0" /><path
           d="m 428.802,341.821 c 2.414,-1.614 5.091,-2.4 7.886,-3.04 7.927,0.385 13.063,-3.082 17.869,-8.921 13.135,-2.154 -10.329,14.914 -1.987,14.363 3.176,0.167 6.104,-0.756 9.014,-1.801 l -4.258,8.292 c -3.325,0.89 -6.784,1.286 -10.281,1.436 l -19.931,-8.444 c 0.564,-0.628 1.126,-1.257 1.688,-1.885"
           style="fill:#0056d2;fill-opacity:1;fill-rule:nonzero;stroke:none"
           id="path114214"
           inkscape:connector-curvature="0" /><path
           d="m 267.87,316.791 c 1.743,-9.075 4.4,-17.887 7.557,-26.551 l 25.881,26.166 z"
           style="fill:#f6daca;fill-opacity:1;fill-rule:nonzero;stroke:none"
           id="path114216"
           inkscape:connector-curvature="0" /><path
           d="m 173.243,330.529 c -11.219,0.314 -10.576,-6.992 0.126,-4.71 5.116,-1.143 9.552,1.389 14.05,3.013 l -10.459,2.564 c -1.222,-0.354 -2.459,-0.652 -3.717,-0.867"
           style="fill:#f03800;fill-opacity:1;fill-rule:nonzero;stroke:none"
           id="path114218"
           inkscape:connector-curvature="0" /><path
           d="m 194.979,317.23 c 2.237,5.739 7.165,6.196 12.246,6.746 l -12.727,3.12 c -4.561,-5.277 -9.741,-16.547 0.481,-9.866"
           style="fill:#f03800;fill-opacity:1;fill-rule:nonzero;stroke:none"
           id="path114220"
           inkscape:connector-curvature="0" /><path
           d="m 372.554,301.82 c 0.026,0.269 0.048,0.539 0.073,0.808 l -0.559,-0.507 z"
           style="fill:#1189e1;fill-opacity:1;fill-rule:nonzero;stroke:none"
           id="path114222"
           inkscape:connector-curvature="0" /><path
           d="m 301.308,316.406 9.598,-47.547 61.162,33.262 z"
           style="fill:#b4d8f4;fill-opacity:1;fill-rule:nonzero;stroke:none"
           id="path114224"
           inkscape:connector-curvature="0" /><path
           d="M 301.308,316.406 275.427,290.24 c 2.155,-5.914 4.541,-11.758 7.031,-17.57 l 28.448,-3.811 z"
           style="fill:#f6f2ee;fill-opacity:1;fill-rule:nonzero;stroke:none"
           id="path114226"
           inkscape:connector-curvature="0" /><path
           d="m 372.413,300.48 c 0.048,0.446 0.097,0.893 0.141,1.34 l -0.486,0.301 z"
           style="fill:#4a9ede;fill-opacity:1;fill-rule:nonzero;stroke:none"
           id="path114228"
           inkscape:connector-curvature="0" /><path
           d="m 310.906,268.859 52.324,-14.533 c 2.433,11.631 4.845,23.279 7.359,34.862 0.814,3.755 1.412,7.521 1.824,11.292 l -0.345,1.641 z"
           style="fill:#9acae6;fill-opacity:1;fill-rule:nonzero;stroke:none"
           id="path114230"
           inkscape:connector-curvature="0" /><path
           d="m 352.873,218.859 3.493,3.442 c 1.224,5.492 2.42,11.002 3.598,16.525 l -30.53,-13.047 z"
           style="fill:#d7d3d3;fill-opacity:1;fill-rule:nonzero;stroke:none"
           id="path114232"
           inkscape:connector-curvature="0" /><path
           d="m 329.434,225.779 30.53,13.047 c 1.099,5.158 2.185,10.328 3.266,15.5 l -52.324,14.533 z"
           style="fill:#e0dce0;fill-opacity:1;fill-rule:nonzero;stroke:none"
           id="path114234"
           inkscape:connector-curvature="0" /><path
           d="m 282.458,272.67 c 2.994,-6.986 6.134,-13.928 9.194,-20.883 l 19.254,17.072 z"
           style="fill:#fac2a2;fill-opacity:1;fill-rule:nonzero;stroke:none"
           id="path114236"
           inkscape:connector-curvature="0" /><path
           d="m 310.906,268.859 -19.254,-17.072 c 2.863,-6.51 5.655,-13.033 8.188,-19.621 1.148,-1.932 2.029,-3.912 2.713,-5.932 l 26.881,-0.455 z"
           style="fill:#f4c4a8;fill-opacity:1;fill-rule:nonzero;stroke:none"
           id="path114238"
           inkscape:connector-curvature="0" /><path
           d="m 355.82,219.391 c 0.023,0.254 0.042,0.507 0.067,0.761 0.16,0.715 0.32,1.434 0.479,2.149 l -3.493,-3.442 z"
           style="fill:#9bb3cf;fill-opacity:1;fill-rule:nonzero;stroke:none"
           id="path114240"
           inkscape:connector-curvature="0" /><path
           d="m 302.553,226.234 c 3.874,-11.447 1.325,-24.14 4.054,-35.779 1.286,-5.51 3.249,-10.783 5.332,-16.014 l 17.495,51.338 z"
           style="fill:#f58959;fill-opacity:1;fill-rule:nonzero;stroke:none"
           id="path114242"
           inkscape:connector-curvature="0" /><path
           d="m 351.756,180.242 4.659,3.533 c -0.613,11.862 -1.665,23.729 -0.595,35.616 l -2.947,-0.532 z"
           style="fill:#cab6ba;fill-opacity:1;fill-rule:nonzero;stroke:none"
           id="path114244"
           inkscape:connector-curvature="0" /><path
           d="m 356.648,178.578 c -0.063,1.731 -0.143,3.465 -0.233,5.197 l -4.659,-3.533 z"
           style="fill:#b989a1;fill-opacity:1;fill-rule:nonzero;stroke:none"
           id="path114246"
           inkscape:connector-curvature="0" /><path
           d="m 329.434,225.779 -17.495,-51.338 c 1.687,-4.23 3.449,-8.433 4.994,-12.705 l 34.823,18.506 z"
           style="fill:#e97d51;fill-opacity:1;fill-rule:nonzero;stroke:none"
           id="path114248"
           inkscape:connector-curvature="0" /><path
           d="m 329.434,225.779 22.322,-45.537 1.117,38.617 z"
           style="fill:#deaa92;fill-opacity:1;fill-rule:nonzero;stroke:none"
           id="path114250"
           inkscape:connector-curvature="0" /><path
           d="m 356.785,172.533 c -0.014,2.016 -0.063,4.03 -0.137,6.045 l -4.892,1.664 z"
           style="fill:#bb474f;fill-opacity:1;fill-rule:nonzero;stroke:none"
           id="path114252"
           inkscape:connector-curvature="0" /><path
           d="m 354.525,135.219 c -1.278,3.924 -1.253,7.797 -0.718,11.679 l -2.051,33.344 -34.823,-18.506 c 0.767,-2.119 1.48,-4.256 2.103,-6.422 -0.051,-4.97 -0.077,-9.964 -0.123,-14.966 L 356.89,96.756 Z"
           style="fill:#df370f;fill-opacity:1;fill-rule:nonzero;stroke:none"
           id="path114254"
           inkscape:connector-curvature="0" /><path
           d="m 353.807,146.898 c 0.551,4.014 1.641,8.038 2.388,12.133 0.471,4.5 0.619,9.002 0.59,13.502 l -5.029,7.709 z"
           style="fill:#c92d1d;fill-opacity:1;fill-rule:nonzero;stroke:none"
           id="path114256"
           inkscape:connector-curvature="0" /><path
           d="m 364.049,98.48 c -1.4,1.344 -2.871,2.598 -4.272,3.764 -3.649,9.846 -2.325,21.522 -4.895,31.959 -0.131,0.338 -0.247,0.678 -0.357,1.016 l 2.365,-38.463 z"
           style="fill:#c92d1d;fill-opacity:1;fill-rule:nonzero;stroke:none"
           id="path114258"
           inkscape:connector-curvature="0" /><path
           d="m 318.913,140.348 c -0.106,-11.678 -0.316,-23.407 -1.167,-35.055 l 39.144,-8.537 z"
           style="fill:#e42600;fill-opacity:1;fill-rule:nonzero;stroke:none"
           id="path114260"
           inkscape:connector-curvature="0" /><path
           d="m 369.228,77.527 c 0.142,0.993 0.347,1.989 0.626,2.993 3.275,7.21 -0.806,13.16 -5.805,17.96 l -7.159,-1.724 z"
           style="fill:#ba0008;fill-opacity:1;fill-rule:nonzero;stroke:none"
           id="path114262"
           inkscape:connector-curvature="0" /><path
           d="m 331.454,62.842 c 0.264,9.377 0.286,18.76 4.644,27.379 3.105,12.383 5.404,8.093 7.04,-1.967 1.235,-2.027 2.112,-4.1 2.722,-6.203 l 11.03,14.705 -39.144,8.537 c -0.461,-6.332 -1.111,-12.641 -2.038,-18.902 -2.756,-5.666 -4.768,-11.495 -6.519,-17.442 l 4.842,-29.338 z"
           style="fill:#db1600;fill-opacity:1;fill-rule:nonzero;stroke:none"
           id="path114264"
           inkscape:connector-curvature="0" /><path
           d="m 309.189,68.949 c -1.085,-3.687 -2.071,-7.42 -3.07,-11.193 -0.516,-3.213 -1.402,-6.297 -2.481,-9.313 l 10.393,-8.832 z"
           style="fill:#e31a00;fill-opacity:1;fill-rule:nonzero;stroke:none"
           id="path114266"
           inkscape:connector-curvature="0" /><path
           d="m 329.471,43.84 c -0.006,0.422 -0.01,0.838 -0.011,1.246 1.561,5.781 1.827,11.768 1.994,17.756 L 314.031,39.611 Z"
           style="fill:#c70000;fill-opacity:1;fill-rule:nonzero;stroke:none"
           id="path114268"
           inkscape:connector-curvature="0" /><path
           d="m 345.86,82.051 c 2.878,-9.94 -0.24,-20.623 -0.334,-31.037 0.147,-0.869 0.314,-1.75 0.499,-2.639 l 27.095,7.424 c -2.51,7.166 -4.968,14.295 -3.892,21.728 L 356.89,96.756 Z"
           style="fill:#c70000;fill-opacity:1;fill-rule:nonzero;stroke:none"
           id="path114270"
           inkscape:connector-curvature="0" /><path
           d="m 327.168,23.191 c 2.968,5.893 2.391,13.887 2.303,20.649 l -15.44,-4.229 z"
           style="fill:#c80003;fill-opacity:1;fill-rule:nonzero;stroke:none"
           id="path114272"
           inkscape:connector-curvature="0" /><path
           d="m 349.42,37.172 24.614,16.004 c -0.302,0.875 -0.608,1.748 -0.914,2.623 l -27.095,-7.424 c 0.774,-3.705 1.892,-7.533 3.395,-11.203"
           style="fill:#c80003;fill-opacity:1;fill-rule:nonzero;stroke:none"
           id="path114274"
           inkscape:connector-curvature="0" /><path
           d="m 355.948,25.865 c 0.387,-0.578 0.813,-1.103 1.269,-1.582 L 375.3,49.322 c -0.398,1.289 -0.825,2.573 -1.266,3.854 L 349.42,37.172 c 1.68,-4.1 3.836,-7.998 6.528,-11.307"
           style="fill:#ba0009;fill-opacity:1;fill-rule:nonzero;stroke:none"
           id="path114276"
           inkscape:connector-curvature="0" /><path
           d="m 303.638,48.443 c -2.824,-7.886 -6.983,-15.295 -9.411,-23.257 -3.652,-6.284 -0.069,-9.352 4.245,-10.1 l 15.559,24.525 z"
           style="fill:#d70e00;fill-opacity:1;fill-rule:nonzero;stroke:none"
           id="path114278"
           inkscape:connector-curvature="0" /><path
           d="m 377.291,33.506 c 0.688,5.43 -0.399,10.66 -1.991,15.816 L 357.217,24.283 c 7.289,-7.625 22.621,-2.416 20.074,9.223"
           style="fill:#a4001d;fill-opacity:1;fill-rule:nonzero;stroke:none"
           id="path114280"
           inkscape:connector-curvature="0" /><path
           d="m 327.168,23.191 -13.137,16.42 -15.559,-24.525 c 1.331,-0.231 2.733,-0.24 4.012,-0.055 5.753,0.137 10.51,2.069 16.447,1.278 l 7.746,5.984 c 0.173,0.293 0.337,0.592 0.491,0.898"
           style="fill:#c60000;fill-opacity:1;fill-rule:nonzero;stroke:none"
           id="path114282"
           inkscape:connector-curvature="0" /><path
           d="m 326.677,22.293 -7.746,-5.984 c 0.129,-0.018 0.257,-0.034 0.385,-0.055 3.503,1.32 5.826,3.439 7.361,6.039"
           style="fill:#bc0006;fill-opacity:1;fill-rule:nonzero;stroke:none"
           id="path114284"
           inkscape:connector-curvature="0" /></g></g></g></svg>